#!OML:ASF F:\VICON\USERDATA\INSTALL\rory3\rory3.ASF
:FULLY-SPECIFIED
:DEGREES
72
root 0.22167901770403425 17.788880188743562 30.399992349866274 -2.515261066118348 1.0432448508442764 -1.6313413118011308
lfemur 7.971839829460055 -4.9271900886220426 -21.027033049890132
ltibia 39.55277989429086
lfoot 5.738218450870812 -12.510580487641642
ltoes -9.856983695333552
rfemur -24.504360506788522 4.487494717434757 24.564519806795243
rtibia 30.10813150503835
rfoot -4.807600881492285 -4.360999171068333
rtoes 6.837588923083123
lowerback 9.49430843370006 -1.3567329309766358 -0.815573940818979
upperback 0.37555910371413037 -1.760762027781575 2.657057793188347
thorax -4.843886369013845 -0.828021758051283 3.140555729830252
lowerneck -16.5342368539625 -2.4880292360792606 -2.42328086465177
upperneck 20.863158026885575 -3.0585474208398042 0.5751747488384675
head 9.30428343068224 -1.531773520771746 0.2655470843795593
lclavicle -2.599318997997476e-15 3.122042907373014e-16
lhumerus -22.892711643095605 -2.8689948423572265 83.71646471484405
lradius 30.31096125414354
lwrist 6.889125645081755
lhand -28.26900153825796 22.5456682417988
lfingers 7.12502
lthumb -1.6456326183769288 52.505818465348966
rclavicle -2.5993189979974766e-15 3.122042907373014e-16
rhumerus -33.82429560178148 -27.625043874272418 -73.90857761721884
rradius 20.25161819163094
rwrist 12.728102175308901
rhand -17.62714295131933 22.34736941000406
rfingers 7.12502
rthumb 8.630093998674369 -7.454833026704515
73
root 0.15035542627770898 17.88766248889215 30.430342852742868 -2.8804803490159294 0.8225449880925404 -3.018439367859541
lfemur 2.839336074008415 -4.027822801501679 -18.536028979093768
ltibia 48.53071064486063
lfoot 10.097763593931234 -14.342349848984963
ltoes -5.425388201026782
rfemur -21.524378415065833 4.781109659011561 26.63247355616769
rtibia 30.338088217505632
rfoot -6.278708528224067 -4.570567483694239
rtoes 8.839805607119423
lowerback 9.600144811746096 -1.1944218582881292 0.4080071236172341
upperback 0.40734456653451545 -1.3959019407289959 2.901470515392815
thorax -4.902397232747643 -0.6704217999660151 2.6620668710495607
lowerneck -16.335631005251827 -2.539832222232557 -2.370861204678932
upperneck 20.903219441291274 -3.1460767304521546 0.6478177314509985
head 9.285282791180315 -1.5673648392681465 0.2666807523470494
lclavicle -2.7039668599880766e-15 2.1549935058350165e-16
lhumerus -24.286039195179875 -2.664256008145683 84.14166859925305
lradius 29.5687598381465
lwrist 6.035381314083276
lhand -27.488025676243712 23.126188791238047
lfingers 7.12502
lthumb -0.891416813919522 53.08941523467285
rclavicle -2.7039668599880766e-15 2.1549935058350165e-16
rhumerus -33.410570642216214 -26.967405770850334 -74.49647821444371
rradius 20.334512387710664
rwrist 12.237103893788209
rhand -17.360701916393253 22.782507967771387
rfingers 7.12502
rthumb 8.887224800796938 -7.009839634390997
74
root 0.09317867441488714 17.977586606922817 30.486736624825134 -3.1489021886300996 0.49534592249094356 -4.0443515885527415
lfemur -2.5039370839662425 -2.867245158059098 -16.58053779708092
ltibia 56.03107176971737
lfoot 10.450832793643801 -13.925783764320194
ltoes -2.6561414762352484
rfemur -18.288737360776633 5.112868409063755 28.280943298313616
rtibia 29.808151355061415
rfoot -8.096463815341028 -5.169432560866644
rtoes 9.32507553581118
lowerback 9.66580142808428 -0.9129164789992149 1.367543142751371
upperback 0.47689821813873595 -0.9109497173018215 2.983324879394908
thorax -4.9102989486863295 -0.45035500403881956 2.161664397745435
lowerneck -16.166665660977674 -2.6247663810969755 -2.3456660431657794
upperneck 20.907898901996848 -3.291385613496601 0.8483536307026579
head 9.266712622346587 -1.6216844560587114 0.2986802557884942
lclavicle -2.7497982890783093e-15 1.7285520698348503e-16
lhumerus -25.448774441560914 -2.625606473894938 84.48791179518176
lradius 28.69946078381323
lwrist 5.014718996024545
lhand -26.99581464715303 23.420661458801824
lfingers 7.12502
lthumb -0.4160703686467171 53.38791603723551
rclavicle -2.7497982890783093e-15 1.7285520698348483e-16
rhumerus -32.58974900441835 -25.595405294775816 -75.59964714613602
rradius 20.65141738035327
rwrist 11.355353736514527
rhand -17.08806093325251 23.24599072775569
rfingers 7.12502
rthumb 9.150339158497676 -6.535644452810836
75
root 0.059767018940566186 18.043358826732362 30.839345981577267 -3.315950327573896 0.035197919700934666 -4.660893924872976
lfemur -7.41228360314701 -1.515810985048151 -15.229147456308493
ltibia 61.58752741901671
lfoot 7.302542780205559 -11.659199219780351
ltoes -2.2513035742029106
rfemur -14.98425642275025 5.42230877713969 29.61190328640815
rtibia 29.348034309677253
rfoot -9.873517940005389 -5.588659149517803
rtoes 8.999542831478477
lowerback 9.690648971474692 -0.5002312067637377 2.1526727377193358
upperback 0.557066894391729 -0.28196528138283994 2.9238772266360344
thorax -4.876204786678123 -0.15675958501993403 1.6609925574234854
lowerneck -16.013126206457798 -2.708992578152378 -2.32456844130868
upperneck 20.91434218404442 -3.4382391968485155 1.0867671268681878
head 9.257377693321626 -1.6744742056783917 0.3423679687918467
lclavicle -2.5186090534994346e-15 3.854054266862244e-16
lhumerus -26.41736235365141 -2.3544961295498146 84.6964907264602
lradius 27.898168902182256
lwrist 4.242164088628388
lhand -26.8708182330925 23.48789765768327
lfingers 7.12502
lthumb -0.29534308395014397 53.45985481826836
rclavicle -2.5186090534994346e-15 3.854054266862244e-16
rhumerus -31.508850384161217 -23.721346078960778 -76.85776515474807
rradius 21.208432853150804
rwrist 10.37904166956139
rhand -16.918480048806135 23.302856620207507
rfingers 7.12502
rthumb 9.313996940326346 -6.471548657347579
